{
  "accessors": [
    {
      "bufferView": 2,
      "componentType": 5126,
      "count": 78,
      "max": [
        -4.8547210693359375,
        0.8235591650009155,
        0.7520298957824707
      ],
      "min": [
        -8.826909065246582,
        0.10453221946954727,
        -1.655565619468689
      ],
      "type": "VEC3"
    },
    {
      "bufferView": 2,
      "byteOffset": 936,
      "componentType": 5126,
      "count": 78,
      "max": [
        1.0,
        1.0,
        1.0
      ],
      "min": [
        -1.0,
        -1.0,
        -0.9997118711471558
      ],
      "type": "VEC3"
    },
    {
      "bufferView": 1,
      "componentType": 5126,
      "count": 78,
      "max": [
        0.9698652029037476,
        0.9685962796211243
      ],
      "min": [
        0.0,
        0.02291141264140606
      ],
      "type": "VEC2"
    },
    {
      "bufferView": 0,
      "componentType": 5125,
      "count": 126,
      "type": "SCALAR"
    },
    {
      "bufferView": 2,
      "byteOffset": 1872,
      "componentType": 5126,
      "count": 80,
      "max": [
        12.945170402526855,
        0.8174715042114258,
        -1.2313759326934814
      ],
      "min": [
        0.2580881118774414,
        0.7790260314941406,
        -12.949748992919922
      ],
      "type": "VEC3"
    },
    {
      "bufferView": 2,
      "byteOffset": 2832,
      "componentType": 5126,
      "count": 80,
      "max": [
        0.7308024168014526,
        1.0,
        0.8425833582878113
      ],
      "min": [
        -0.7307900190353394,
        0.538565993309021,
        -0.8425833582878113
      ],
      "type": "VEC3"
    },
    {
      "bufferView": 1,
      "byteOffset": 624,
      "componentType": 5126,
      "count": 80,
      "max": [
        0.9789600372314453,
        0.9769445657730103
      ],
      "min": [
        0.015206187963485718,
        0.2635733485221863
      ],
      "type": "VEC2"
    },
    {
      "bufferView": 1,
      "byteOffset": 1264,
      "componentType": 5126,
      "count": 80,
      "max": [
        0.9789600372314453,
        0.9769445657730103
      ],
      "min": [
        0.015206187963485718,
        0.2635733485221863
      ],
      "type": "VEC2"
    },
    {
      "bufferView": 0,
      "byteOffset": 504,
      "componentType": 5125,
      "count": 120,
      "type": "SCALAR"
    },
    {
      "bufferView": 2,
      "byteOffset": 3792,
      "componentType": 5126,
      "count": 56,
      "max": [
        0.49895915389060974,
        0.4999999403953552,
        0.6021165251731873
      ],
      "min": [
        -0.5084739923477173,
        -0.49921005964279175,
        0.4358748197555542
      ],
      "type": "VEC3"
    },
    {
      "bufferView": 2,
      "byteOffset": 4464,
      "componentType": 5126,
      "count": 56,
      "max": [
        1.2026458762193215e-07,
        1.0,
        1.0
      ],
      "min": [
        -1.62850454898944e-07,
        0.0,
        -0.9983866810798645
      ],
      "type": "VEC3"
    },
    {
      "bufferView": 1,
      "byteOffset": 1904,
      "componentType": 5126,
      "count": 56,
      "max": [
        0.9803206920623779,
        0.2513834834098816
      ],
      "min": [
        0.02094876766204834,
        0.019060105085372925
      ],
      "type": "VEC2"
    },
    {
      "bufferView": 1,
      "byteOffset": 2352,
      "componentType": 5126,
      "count": 56,
      "max": [
        0.9803206920623779,
        0.2513834834098816
      ],
      "min": [
        0.02094876766204834,
        0.019060105085372925
      ],
      "type": "VEC2"
    },
    {
      "bufferView": 0,
      "byteOffset": 984,
      "componentType": 5125,
      "count": 84,
      "type": "SCALAR"
    },
    {
      "bufferView": 2,
      "byteOffset": 5136,
      "componentType": 5126,
      "count": 28,
      "max": [
        0.49895915389060974,
        0.4999999403953552,
        0.6021165251731873
      ],
      "min": [
        -0.5084739923477173,
        -0.49921005964279175,
        0.4358748495578766
      ],
      "type": "VEC3"
    },
    {
      "bufferView": 2,
      "byteOffset": 5472,
      "componentType": 5126,
      "count": 28,
      "max": [
        0.0,
        1.0,
        1.0
      ],
      "min": [
        0.0,
        0.0,
        -0.9983866214752197
      ],
      "type": "VEC3"
    },
    {
      "bufferView": 1,
      "byteOffset": 2800,
      "componentType": 5126,
      "count": 28,
      "max": [
        0.9803206920623779,
        0.2513834834098816
      ],
      "min": [
        0.02094876766204834,
        0.019060105085372925
      ],
      "type": "VEC2"
    },
    {
      "bufferView": 1,
      "byteOffset": 3024,
      "componentType": 5126,
      "count": 28,
      "max": [
        0.9803206920623779,
        0.2513834834098816
      ],
      "min": [
        0.02094876766204834,
        0.019060105085372925
      ],
      "type": "VEC2"
    },
    {
      "bufferView": 0,
      "byteOffset": 1320,
      "componentType": 5125,
      "count": 42,
      "type": "SCALAR"
    },
    {
      "bufferView": 2,
      "byteOffset": 5808,
      "componentType": 5126,
      "count": 80,
      "max": [
        12.945170402526855,
        0.8174715042114258,
        -1.2313759326934814
      ],
      "min": [
        0.2580881118774414,
        0.7790260314941406,
        -12.949748992919922
      ],
      "type": "VEC3"
    },
    {
      "bufferView": 2,
      "byteOffset": 6768,
      "componentType": 5126,
      "count": 80,
      "max": [
        0.7308024168014526,
        1.0,
        0.8425833582878113
      ],
      "min": [
        -0.7307900190353394,
        0.538565993309021,
        -0.8425833582878113
      ],
      "type": "VEC3"
    },
    {
      "bufferView": 1,
      "byteOffset": 3248,
      "componentType": 5126,
      "count": 80,
      "max": [
        0.9789600372314453,
        0.9769445657730103
      ],
      "min": [
        0.015206187963485718,
        0.2635733485221863
      ],
      "type": "VEC2"
    },
    {
      "bufferView": 1,
      "byteOffset": 3888,
      "componentType": 5126,
      "count": 80,
      "max": [
        0.9789600372314453,
        0.9769445657730103
      ],
      "min": [
        0.015206187963485718,
        0.2635733485221863
      ],
      "type": "VEC2"
    },
    {
      "bufferView": 0,
      "byteOffset": 1488,
      "componentType": 5125,
      "count": 120,
      "type": "SCALAR"
    },
    {
      "bufferView": 2,
      "byteOffset": 7728,
      "componentType": 5126,
      "count": 221,
      "max": [
        -13.902437210083008,
        0.8288189768791199,
        -1.2313754558563232
      ],
      "min": [
        -32.956077575683594,
        0.3150613009929657,
        -18.800037384033203
      ],
      "type": "VEC3"
    },
    {
      "bufferView": 2,
      "byteOffset": 10380,
      "componentType": 5126,
      "count": 221,
      "max": [
        0.8301489353179932,
        1.0,
        0.838029682636261
      ],
      "min": [
        -0.8768390417098999,
        0.46809545159339905,
        -0.8836779594421387
      ],
      "type": "VEC3"
    },
    {
      "bufferView": 1,
      "byteOffset": 4528,
      "componentType": 5126,
      "count": 221,
      "max": [
        0.9698096513748169,
        0.968886137008667
      ],
      "min": [
        0.027075350284576416,
        0.26006338000297546
      ],
      "type": "VEC2"
    },
    {
      "bufferView": 1,
      "byteOffset": 6296,
      "componentType": 5126,
      "count": 221,
      "max": [
        0.9698096513748169,
        0.968886137008667
      ],
      "min": [
        0.027075350284576416,
        0.26006338000297546
      ],
      "type": "VEC2"
    },
    {
      "bufferView": 0,
      "byteOffset": 1968,
      "componentType": 5125,
      "count": 438,
      "type": "SCALAR"
    },
    {
      "bufferView": 2,
      "byteOffset": 13032,
      "componentType": 5126,
      "count": 293,
      "max": [
        -13.307391166687012,
        0.8378917574882507,
        0.8576140403747559
      ],
      "min": [
        -35.474239349365234,
        0.10298305004835129,
        -19.678857803344727
      ],
      "type": "VEC3"
    },
    {
      "bufferView": 2,
      "byteOffset": 16548,
      "componentType": 5126,
      "count": 293,
      "max": [
        0.9999997615814209,
        1.0,
        1.0
      ],
      "min": [
        -1.0,
        -0.05562121793627739,
        -0.9999998211860657
      ],
      "type": "VEC3"
    },
    {
      "bufferView": 1,
      "byteOffset": 8064,
      "componentType": 5126,
      "count": 293,
      "max": [
        0.9667131304740906,
        1.0354284048080444
      ],
      "min": [
        -2.5600037574768066,
        0.009921550750732422
      ],
      "type": "VEC2"
    },
    {
      "bufferView": 1,
      "byteOffset": 10408,
      "componentType": 5126,
      "count": 293,
      "max": [
        0.9667131304740906,
        1.0354284048080444
      ],
      "min": [
        -2.5600037574768066,
        0.009921550750732422
      ],
      "type": "VEC2"
    },
    {
      "bufferView": 0,
      "byteOffset": 3720,
      "componentType": 5125,
      "count": 579,
      "type": "SCALAR"
    }
  ],
  "asset": {
    "extras": {
      "author": "zogorman (https://sketchfab.com/zogorman)",
      "license": "CC-BY-4.0 (http://creativecommons.org/licenses/by/4.0/)",
      "source": "https://sketchfab.com/3d-models/sidewalk-3bc0bc67798645a58ef8ece1bd2d1818",
      "title": "SIDEWALK"
    },
    "generator": "Sketchfab-12.68.0",
    "version": "2.0"
  },
  "bufferViews": [
    {
      "buffer": 0,
      "byteLength": 6036,
      "name": "floatBufferViews",
      "target": 34963
    },
    {
      "buffer": 0,
      "byteLength": 12752,
      "byteOffset": 6036,
      "byteStride": 8,
      "name": "floatBufferViews",
      "target": 34962
    },
    {
      "buffer": 0,
      "byteLength": 20064,
      "byteOffset": 18788,
      "byteStride": 12,
      "name": "floatBufferViews",
      "target": 34962
    }
  ],
  "buffers": [
    {
      "byteLength": 38852,
      "uri": "scene.bin"
    }
  ],
  "images": [
    {
      "uri": "textures/DRAIN_TEXTURE_baseColor.jpeg"
    },
    {
      "uri": "textures/PLAIN_SIDEWALK_baseColor.jpeg"
    }
  ],
  "materials": [
    {
      "doubleSided": true,
      "name": "DRAIN_TEXTURE",
      "pbrMetallicRoughness": {
        "baseColorTexture": {
          "index": 0
        },
        "metallicFactor": 0.6336809872118242,
        "roughnessFactor": 0.6
      }
    },
    {
      "doubleSided": true,
      "name": "PLAIN_SIDEWALK",
      "pbrMetallicRoughness": {
        "baseColorTexture": {
          "index": 1
        },
        "metallicFactor": 0.0,
        "roughnessFactor": 0.2804294422360286
      }
    }
  ],
  "meshes": [
    {
      "name": "pCube12_DRAIN_TEXTURE_0",
      "primitives": [
        {
          "attributes": {
            "NORMAL": 1,
            "POSITION": 0,
            "TEXCOORD_0": 2
          },
          "indices": 3,
          "material": 0,
          "mode": 4
        }
      ]
    },
    {
      "name": "pCube16_PLAIN_SIDEWALK_0",
      "primitives": [
        {
          "attributes": {
            "NORMAL": 5,
            "POSITION": 4,
            "TEXCOORD_0": 6,
            "TEXCOORD_1": 7
          },
          "indices": 8,
          "material": 1,
          "mode": 4
        }
      ]
    },
    {
      "name": "pCube17_PLAIN_SIDEWALK_0",
      "primitives": [
        {
          "attributes": {
            "NORMAL": 10,
            "POSITION": 9,
            "TEXCOORD_0": 11,
            "TEXCOORD_1": 12
          },
          "indices": 13,
          "material": 1,
          "mode": 4
        }
      ]
    },
    {
      "name": "pCube2_PLAIN_SIDEWALK_0",
      "primitives": [
        {
          "attributes": {
            "NORMAL": 15,
            "POSITION": 14,
            "TEXCOORD_0": 16,
            "TEXCOORD_1": 17
          },
          "indices": 18,
          "material": 1,
          "mode": 4
        }
      ]
    },
    {
      "name": "pCube7_PLAIN_SIDEWALK_0",
      "primitives": [
        {
          "attributes": {
            "NORMAL": 20,
            "POSITION": 19,
            "TEXCOORD_0": 21,
            "TEXCOORD_1": 22
          },
          "indices": 23,
          "material": 1,
          "mode": 4
        }
      ]
    },
    {
      "name": "pCube15_PLAIN_SIDEWALK_0",
      "primitives": [
        {
          "attributes": {
            "NORMAL": 25,
            "POSITION": 24,
            "TEXCOORD_0": 26,
            "TEXCOORD_1": 27
          },
          "indices": 28,
          "material": 1,
          "mode": 4
        }
      ]
    },
    {
      "name": "polySurface2_PLAIN_SIDEWALK_0",
      "primitives": [
        {
          "attributes": {
            "NORMAL": 30,
            "POSITION": 29,
            "TEXCOORD_0": 31,
            "TEXCOORD_1": 32
          },
          "indices": 33,
          "material": 1,
          "mode": 4
        }
      ]
    }
  ],
  "nodes": [
    {
      "children": [
        1
      ],
      "matrix": [
        1.0,
        0.0,
        0.0,
        0.0,
        0.0,
        2.220446049250313e-16,
        -1.0,
        0.0,
        0.0,
        1.0,
        2.220446049250313e-16,
        0.0,
        0.0,
        0.0,
        0.0,
        1.0
      ],
      "name": "Sketchfab_model"
    },
    {
      "children": [
        2
      ],
      "matrix": [
        1.0,
        0.0,
        0.0,
        0.0,
        0.0,
        0.0,
        1.0,
        0.0,
        0.0,
        -1.0,
        0.0,
        0.0,
        0.0,
        0.0,
        0.0,
        1.0
      ],
      "name": "5277b587e73049c59376cbfe5e833adc.fbx"
    },
    {
      "children": [
        3,
        10,
        15
      ],
      "name": "RootNode"
    },
    {
      "children": [
        4,
        6,
        8
      ],
      "matrix": [
        1.0,
        0.0,
        0.0,
        0.0,
        0.0,
        1.0,
        0.0,
        0.0,
        0.0,
        0.0,
        1.0,
        0.0,
        10.219587326049805,
        1.343299979578291e-14,
        0.11658701300621033,
        1.0
      ],
      "name": "DRAIN"
    },
    {
      "children": [
        5
      ],
      "matrix": [
        1.0,
        0.0,
        0.0,
        0.0,
        0.0,
        1.0,
        0.0,
        0.0,
        0.0,
        0.0,
        1.0,
        0.0,
        -8.881784197001252e-15,
        0.007004591170698404,
        -5.551115123125783e-16,
        1.0
      ],
      "name": "pCube12"
    },
    {
      "mesh": 0,
      "name": "pCube12_DRAIN_TEXTURE_0"
    },
    {
      "children": [
        7
      ],
      "matrix": [
        1.0,
        0.0,
        0.0,
        0.0,
        0.0,
        1.0,
        0.0,
        0.0,
        0.0,
        0.0,
        1.0,
        0.0,
        -13.429676055908203,
        -1.343299979578291e-14,
        -0.003162116976454854,
        1.0
      ],
      "name": "pCube16"
    },
    {
      "mesh": 1,
      "name": "pCube16_PLAIN_SIDEWALK_0"
    },
    {
      "children": [
        9
      ],
      "matrix": [
        12.589736938476563,
        0.0,
        0.0,
        0.0,
        0.0,
        0.6769304275512695,
        0.0,
        0.0,
        0.0,
        0.0,
        11.902364730834961,
        0.0,
        -6.761533260345459,
        0.48023250699043274,
        -6.426577568054199,
        1.0
      ],
      "name": "pCube17"
    },
    {
      "mesh": 2,
      "name": "pCube17_PLAIN_SIDEWALK_0"
    },
    {
      "children": [
        11,
        13
      ],
      "matrix": [
        1.0,
        0.0,
        0.0,
        0.0,
        0.0,
        1.0,
        0.0,
        0.0,
        0.0,
        0.0,
        1.0,
        0.0,
        9.445868492126465,
        0.0,
        0.11342489719390869,
        1.0
      ],
      "name": "PLAIN"
    },
    {
      "children": [
        12
      ],
      "matrix": [
        12.589736938476563,
        0.0,
        0.0,
        0.0,
        0.0,
        0.6769304275512695,
        0.0,
        0.0,
        0.0,
        0.0,
        11.902364730834961,
        0.0,
        6.663584232330322,
        0.48023250699043274,
        -6.423415184020996,
        1.0
      ],
      "name": "pCube2"
    },
    {
      "mesh": 3,
      "name": "pCube2_PLAIN_SIDEWALK_0"
    },
    {
      "children": [
        14
      ],
      "name": "pCube7"
    },
    {
      "mesh": 4,
      "name": "pCube7_PLAIN_SIDEWALK_0"
    },
    {
      "children": [
        16,
        18
      ],
      "matrix": [
        1.0,
        0.0,
        0.0,
        0.0,
        0.0,
        1.0,
        0.0,
        0.0,
        0.0,
        0.0,
        1.0,
        0.0,
        10.427648544311523,
        0.0,
        0.0,
        1.0
      ],
      "name": "CORNER"
    },
    {
      "children": [
        17
      ],
      "matrix": [
        1.0578348636627197,
        0.0,
        0.0,
        0.0,
        0.0,
        1.0578348636627197,
        0.0,
        0.0,
        0.0,
        0.0,
        1.0578348636627197,
        0.0,
        1.3546420335769653,
        -0.03009839728474617,
        0.1995677500963211,
        1.0
      ],
      "name": "pCube15"
    },
    {
      "mesh": 5,
      "name": "pCube15_PLAIN_SIDEWALK_0"
    },
    {
      "children": [
        19
      ],
      "name": "polySurface2"
    },
    {
      "mesh": 6,
      "name": "polySurface2_PLAIN_SIDEWALK_0"
    }
  ],
  "samplers": [
    {
      "magFilter": 9729,
      "minFilter": 9987,
      "wrapS": 10497,
      "wrapT": 10497
    }
  ],
  "scene": 0,
  "scenes": [
    {
      "name": "Sketchfab_Scene",
      "nodes": [
        0
      ]
    }
  ],
  "textures": [
    {
      "sampler": 0,
      "source": 0
    },
    {
      "sampler": 0,
      "source": 1
    }
  ]
}
